<?xml version="1.0" encoding="utf-8"?>
<!-- Generator: Adobe Illustrator 19.2.1, SVG Export Plug-In . SVG Version: 6.00 Build 0)  -->
<svg version="1.1" id="Calque_1" xmlns="http://www.w3.org/2000/svg" xmlns:xlink="http://www.w3.org/1999/xlink" x="0px" y="0px"
	 viewBox="0 0 557.3 59.6" style="enable-background:new 0 0 557.3 59.6;" xml:space="preserve">
<style type="text/css">
	.st0{fill:#302618;}
	.st1{fill:#C6B28D;}
	.st2{fill:#000204;}
	.st3{fill:#EEEDEB;}
</style>
<g>
	<path class="st0" d="M261.3,10l6.1,15.5h0.1l6.1-15.5h3.3v19.1h-2.6v-7.6l0.3-7.8l-0.1,0l-6.2,15.3h-1.7l-6.2-15.3l-0.1,0l0.2,7.7
		v7.6H258V10H261.3z"/>
	<path class="st0" d="M280.5,21.9c0-2.1,0.6-3.8,1.7-5.2c1.1-1.4,2.7-2,4.6-2c2,0,3.5,0.7,4.7,2c1.1,1.4,1.7,3.1,1.7,5.2v0.3
		c0,2.1-0.6,3.8-1.7,5.2c-1.1,1.3-2.7,2-4.6,2c-2,0-3.5-0.7-4.6-2c-1.1-1.3-1.7-3.1-1.7-5.2V21.9z M283.1,22.2c0,1.5,0.3,2.7,1,3.7
		c0.6,1,1.6,1.5,2.8,1.5c1.2,0,2.2-0.5,2.8-1.5c0.6-1,1-2.2,1-3.7v-0.3c0-1.5-0.3-2.7-1-3.7c-0.6-1-1.6-1.5-2.8-1.5
		c-1.2,0-2.2,0.5-2.8,1.5c-0.6,1-1,2.2-1,3.7V22.2z"/>
	<path class="st0" d="M298.7,14.9l0.2,2.1c0.5-0.8,1.1-1.3,1.8-1.8c0.7-0.4,1.5-0.6,2.4-0.6c1.5,0,2.7,0.4,3.6,1.3
		c0.8,0.9,1.3,2.3,1.3,4.1v9h-2.6v-8.9c0-1.2-0.2-2.1-0.7-2.7c-0.5-0.5-1.2-0.8-2.3-0.8c-0.7,0-1.4,0.2-2,0.5
		c-0.6,0.4-1,0.8-1.4,1.5v10.3h-2.6V14.9H298.7z"/>
	<path class="st0" d="M315.1,11.5v3.4h2.7v1.9h-2.7v8.6c0,0.7,0.1,1.1,0.4,1.4c0.3,0.3,0.6,0.4,1.1,0.4c0.1,0,0.3,0,0.5-0.1
		c0.2,0,0.3-0.1,0.5-0.1l0.3,1.8c-0.2,0.2-0.5,0.3-0.8,0.4c-0.4,0.1-0.7,0.1-1.1,0.1c-1,0-1.9-0.3-2.5-1s-0.9-1.6-0.9-3v-8.6h-2.3
		v-1.9h2.3v-3.4H315.1z"/>
	<path class="st0" d="M327.6,17.2l-1.3-0.1c-0.7,0-1.3,0.2-1.7,0.5c-0.5,0.3-0.8,0.8-1.1,1.4v10.1h-2.6V14.9h2.3l0.2,2.1
		c0.4-0.7,0.9-1.3,1.5-1.7c0.6-0.4,1.3-0.6,2-0.6c0.2,0,0.4,0,0.6,0c0.2,0,0.3,0.1,0.4,0.1L327.6,17.2z"/>
	<path class="st0" d="M335.8,29.4c-2,0-3.5-0.7-4.7-2c-1.2-1.3-1.7-3-1.7-5.1v-0.6c0-2,0.6-3.7,1.8-5c1.2-1.3,2.6-2,4.3-2
		c1.9,0,3.4,0.6,4.3,1.7c1,1.2,1.5,2.7,1.5,4.6v1.6H332l0,0.1c0,1.4,0.4,2.5,1,3.4c0.7,0.9,1.6,1.3,2.8,1.3c0.9,0,1.6-0.1,2.3-0.4
		c0.7-0.3,1.2-0.6,1.7-1l1,1.7c-0.5,0.5-1.2,0.9-2,1.3S337,29.4,335.8,29.4z M335.4,16.7c-0.9,0-1.6,0.4-2.2,1.1
		c-0.6,0.7-1,1.6-1.1,2.7l0,0.1h6.5v-0.3c0-1-0.3-1.9-0.8-2.5C337.2,17,336.4,16.7,335.4,16.7z"/>
	<path class="st0" d="M352.3,25.3c0-0.6-0.2-1-0.6-1.4c-0.4-0.4-1.3-0.7-2.5-1c-1.7-0.4-3-0.9-3.9-1.5c-0.9-0.6-1.3-1.5-1.3-2.6
		c0-1.2,0.5-2.1,1.5-2.9c1-0.8,2.3-1.2,3.8-1.2c1.7,0,3,0.4,3.9,1.3c1,0.8,1.4,1.9,1.4,3.1l0,0.1h-2.5c0-0.6-0.3-1.2-0.8-1.7
		c-0.5-0.5-1.2-0.7-2.1-0.7c-0.9,0-1.6,0.2-2,0.6c-0.4,0.4-0.7,0.9-0.7,1.5c0,0.6,0.2,1,0.6,1.3c0.4,0.3,1.2,0.6,2.4,0.9
		c1.8,0.4,3.1,0.9,4,1.6s1.3,1.5,1.3,2.7c0,1.3-0.5,2.3-1.5,3.1c-1,0.8-2.3,1.2-4,1.2c-1.8,0-3.2-0.5-4.3-1.4s-1.5-2-1.5-3.2l0-0.1
		h2.5c0,0.9,0.4,1.6,1,2c0.6,0.4,1.4,0.6,2.2,0.6c0.9,0,1.6-0.2,2.2-0.6C352.1,26.4,352.3,25.9,352.3,25.3z"/>
	<path class="st0" d="M369.5,24.9l0.2,1h0.1l0.2-1l3.3-10h2.6l-5.2,14.2h-2l-5.3-14.2h2.6L369.5,24.9z"/>
	<path class="st0" d="M381.1,11.3h-2.6V8.6h2.6V11.3z M381.1,29.1h-2.6V14.9h2.6V29.1z"/>
	<path class="st0" d="M387.4,14.9l0.2,2.1c0.5-0.8,1.1-1.3,1.8-1.8s1.5-0.6,2.4-0.6c1.5,0,2.7,0.4,3.6,1.3c0.8,0.9,1.3,2.3,1.3,4.1
		v9H394v-8.9c0-1.2-0.2-2.1-0.7-2.7s-1.2-0.8-2.3-0.8c-0.7,0-1.4,0.2-2,0.5c-0.6,0.4-1,0.8-1.4,1.5v10.3h-2.6V14.9H387.4z"/>
	<path class="st0" d="M403.7,11.5v3.4h2.7v1.9h-2.7v8.6c0,0.7,0.1,1.1,0.4,1.4c0.3,0.3,0.6,0.4,1.1,0.4c0.1,0,0.3,0,0.5-0.1
		c0.2,0,0.3-0.1,0.5-0.1l0.3,1.8c-0.2,0.2-0.5,0.3-0.8,0.4c-0.4,0.1-0.7,0.1-1.1,0.1c-1,0-1.9-0.3-2.5-1c-0.6-0.6-0.9-1.6-0.9-3
		v-8.6h-2.3v-1.9h2.3v-3.4H403.7z"/>
	<path class="st0" d="M418.3,29.1c-0.1-0.4-0.2-0.8-0.2-1.1c0-0.3-0.1-0.7-0.1-1c-0.5,0.7-1.1,1.3-1.9,1.7c-0.8,0.5-1.6,0.7-2.5,0.7
		c-1.5,0-2.6-0.4-3.4-1.1c-0.8-0.8-1.2-1.8-1.2-3.1c0-1.4,0.5-2.4,1.6-3.2c1.1-0.8,2.6-1.1,4.5-1.1h2.8v-1.4c0-0.8-0.3-1.5-0.8-2
		c-0.5-0.5-1.2-0.7-2.2-0.7c-0.8,0-1.5,0.2-2,0.6c-0.5,0.4-0.8,0.9-0.8,1.5h-2.5l0-0.1c-0.1-1,0.4-2,1.5-2.8c1-0.9,2.4-1.3,4-1.3
		c1.6,0,2.9,0.4,3.9,1.2c1,0.8,1.5,2,1.5,3.5v6.8c0,0.5,0,1,0.1,1.5c0.1,0.5,0.1,0.9,0.3,1.4H418.3z M414,27.2
		c0.9,0,1.8-0.2,2.5-0.7c0.8-0.5,1.2-1,1.5-1.6v-2.3h-2.9c-1,0-1.9,0.3-2.5,0.8c-0.6,0.5-0.9,1.1-0.9,1.8c0,0.6,0.2,1.1,0.6,1.5
		C412.7,27,413.3,27.2,414,27.2z"/>
	<path class="st0" d="M423.8,22.3c0-2.3,0.5-4.1,1.5-5.5c1-1.4,2.4-2.1,4.1-2.1c0.9,0,1.7,0.2,2.4,0.5c0.7,0.4,1.3,0.9,1.7,1.6
		l0.3-1.8h2.1v14.3c0,1.8-0.5,3.2-1.6,4.2c-1.1,1-2.6,1.5-4.6,1.5c-0.7,0-1.4-0.1-2.2-0.3c-0.8-0.2-1.5-0.4-2.1-0.8l0.7-2
		c0.5,0.3,1,0.5,1.7,0.6c0.7,0.2,1.3,0.2,1.9,0.2c1.3,0,2.2-0.3,2.7-0.9c0.6-0.6,0.9-1.4,0.9-2.6v-1.6c-0.5,0.6-1,1-1.7,1.3
		c-0.6,0.3-1.4,0.5-2.2,0.5c-1.7,0-3.1-0.6-4.1-1.9c-1-1.3-1.5-2.9-1.5-4.9V22.3z M426.4,22.5c0,1.4,0.3,2.6,0.9,3.4
		c0.6,0.9,1.5,1.3,2.8,1.3c0.8,0,1.4-0.2,2-0.5c0.5-0.4,1-0.9,1.3-1.5v-6.5c-0.3-0.6-0.8-1.1-1.3-1.4c-0.5-0.4-1.2-0.5-1.9-0.5
		c-1.2,0-2.2,0.5-2.8,1.5c-0.6,1-0.9,2.4-0.9,4V22.5z"/>
	<path class="st0" d="M445.5,29.4c-2,0-3.5-0.7-4.7-2c-1.2-1.3-1.7-3-1.7-5.1v-0.6c0-2,0.6-3.7,1.8-5c1.2-1.3,2.6-2,4.3-2
		c1.9,0,3.4,0.6,4.3,1.7c1,1.2,1.5,2.7,1.5,4.6v1.6h-9.2l0,0.1c0,1.4,0.4,2.5,1,3.4c0.7,0.9,1.6,1.3,2.8,1.3c0.9,0,1.6-0.1,2.3-0.4
		c0.7-0.3,1.2-0.6,1.7-1l1,1.7c-0.5,0.5-1.2,0.9-2,1.3S446.7,29.4,445.5,29.4z M445.1,16.7c-0.9,0-1.6,0.4-2.2,1.1
		c-0.6,0.7-1,1.6-1.1,2.7l0,0.1h6.5v-0.3c0-1-0.3-1.9-0.8-2.5C447,17,446.2,16.7,445.1,16.7z"/>
	<path class="st0" d="M462.1,25.3c0-0.6-0.2-1-0.6-1.4c-0.4-0.4-1.3-0.7-2.5-1c-1.7-0.4-3-0.9-3.9-1.5c-0.9-0.6-1.3-1.5-1.3-2.6
		c0-1.2,0.5-2.1,1.5-2.9c1-0.8,2.3-1.2,3.8-1.2c1.6,0,3,0.4,3.9,1.3c1,0.8,1.4,1.9,1.4,3.1l0,0.1h-2.5c0-0.6-0.3-1.2-0.8-1.7
		s-1.2-0.7-2.1-0.7c-0.9,0-1.6,0.2-2,0.6c-0.4,0.4-0.7,0.9-0.7,1.5c0,0.6,0.2,1,0.6,1.3c0.4,0.3,1.2,0.6,2.4,0.9
		c1.8,0.4,3.1,0.9,4,1.6c0.9,0.7,1.3,1.5,1.3,2.7c0,1.3-0.5,2.3-1.5,3.1c-1,0.8-2.3,1.2-4,1.2c-1.8,0-3.2-0.5-4.3-1.4
		c-1-0.9-1.5-2-1.5-3.2l0-0.1h2.5c0,0.9,0.4,1.6,1,2c0.6,0.4,1.4,0.6,2.2,0.6c0.9,0,1.6-0.2,2.2-0.6
		C461.8,26.4,462.1,25.9,462.1,25.3z"/>
	<path class="st0" d="M474,22.3c0-2.3,0.5-4.1,1.5-5.5c1-1.4,2.3-2.1,4.1-2.1c0.8,0,1.6,0.2,2.2,0.5c0.6,0.3,1.2,0.8,1.6,1.3V8.6
		h2.6v20.5h-2.1l-0.3-1.7c-0.5,0.7-1,1.2-1.7,1.5c-0.7,0.3-1.5,0.5-2.3,0.5c-1.7,0-3.1-0.6-4.1-1.9c-1-1.3-1.5-2.9-1.5-4.9V22.3z
		 M476.5,22.5c0,1.4,0.3,2.6,0.9,3.4c0.6,0.9,1.5,1.3,2.7,1.3c0.8,0,1.4-0.2,1.9-0.5c0.5-0.3,1-0.8,1.3-1.5v-6.6
		c-0.3-0.6-0.8-1.1-1.3-1.4c-0.5-0.3-1.2-0.5-1.9-0.5c-1.2,0-2.2,0.5-2.7,1.5c-0.6,1-0.9,2.3-0.9,4V22.5z"/>
	<path class="st0" d="M495.7,29.4c-2,0-3.5-0.7-4.7-2c-1.2-1.3-1.7-3-1.7-5.1v-0.6c0-2,0.6-3.7,1.8-5s2.6-2,4.3-2
		c1.9,0,3.4,0.6,4.3,1.7c1,1.2,1.5,2.7,1.5,4.6v1.6h-9.2l0,0.1c0,1.4,0.4,2.5,1,3.4c0.7,0.9,1.6,1.3,2.8,1.3c0.9,0,1.6-0.1,2.3-0.4
		c0.7-0.3,1.2-0.6,1.7-1l1,1.7c-0.5,0.5-1.2,0.9-2,1.3S496.9,29.4,495.7,29.4z M495.3,16.7c-0.9,0-1.6,0.4-2.2,1.1
		c-0.6,0.7-1,1.6-1.1,2.7l0,0.1h6.5v-0.3c0-1-0.3-1.9-0.8-2.5C497.2,17,496.4,16.7,495.3,16.7z"/>
	<path class="st0" d="M513.5,29.1h-2.6V8.6h2.6V29.1z"/>
	<path class="st0" d="M526.5,27c-0.4,0.8-1,1.3-1.7,1.8c-0.7,0.4-1.5,0.6-2.4,0.6c-1.5,0-2.8-0.5-3.6-1.5c-0.9-1-1.3-2.5-1.3-4.6
		v-8.4h2.6v8.4c0,1.5,0.2,2.6,0.7,3.1c0.4,0.6,1.1,0.9,2.1,0.9c0.9,0,1.7-0.2,2.3-0.6s1.1-0.9,1.4-1.6V14.9h2.6v14.2h-2.3L526.5,27z
		"/>
	<path class="st0" d="M537.5,20.1l3-5.2h3l-4.6,7l4.7,7.2h-3l-3.1-5.4l-3.1,5.4h-3l4.7-7.2l-4.6-7h3L537.5,20.1z"/>
	<path class="st0" d="M551.8,29.4c-2,0-3.5-0.7-4.7-2c-1.2-1.3-1.7-3-1.7-5.1v-0.6c0-2,0.6-3.7,1.8-5c1.2-1.3,2.6-2,4.3-2
		c1.9,0,3.4,0.6,4.3,1.7c1,1.2,1.5,2.7,1.5,4.6v1.6H548l0,0.1c0,1.4,0.4,2.5,1,3.4c0.7,0.9,1.6,1.3,2.8,1.3c0.9,0,1.6-0.1,2.3-0.4
		c0.7-0.3,1.2-0.6,1.7-1l1,1.7c-0.5,0.5-1.2,0.9-2,1.3C554,29.2,553,29.4,551.8,29.4z M551.4,16.7c-0.9,0-1.6,0.4-2.2,1.1
		c-0.6,0.7-1,1.6-1.1,2.7l0,0.1h6.5v-0.3c0-1-0.3-1.9-0.8-2.5C553.3,17,552.5,16.7,551.4,16.7z"/>
</g>
<g>
	<path class="st1" d="M266.2,44.8c0,1.2-0.4,2.2-1.1,2.9c-0.7,0.8-1.7,1.2-2.9,1.2c-1.1,0-2-0.4-2.8-1.2c-0.7-0.8-1.1-1.8-1.1-2.9
		v-1.7c0-1.2,0.4-2.2,1.1-2.9c0.7-0.8,1.6-1.2,2.8-1.2c1.2,0,2.1,0.4,2.9,1.2c0.7,0.8,1.1,1.8,1.1,2.9V44.8z M264.8,43.1
		c0-0.9-0.2-1.6-0.7-2.2c-0.5-0.6-1.1-0.9-1.9-0.9c-0.8,0-1.4,0.3-1.8,0.9c-0.5,0.6-0.7,1.3-0.7,2.2v1.7c0,0.9,0.2,1.6,0.7,2.2
		c0.5,0.6,1.1,0.9,1.8,0.9c0.8,0,1.5-0.3,1.9-0.8c0.5-0.6,0.7-1.3,0.7-2.2V43.1z"/>
	<path class="st1" d="M272.2,47.9c0.4,0,0.8-0.1,1.1-0.4c0.3-0.3,0.5-0.6,0.5-1h1.2l0,0c0,0.6-0.3,1.2-0.8,1.7
		c-0.6,0.5-1.2,0.7-2,0.7c-1,0-1.8-0.3-2.4-1c-0.6-0.7-0.8-1.5-0.8-2.6V45c0-1,0.3-1.9,0.8-2.6c0.6-0.7,1.4-1,2.4-1
		c0.8,0,1.5,0.2,2.1,0.7s0.8,1.1,0.8,1.8l0,0h-1.2c0-0.4-0.2-0.8-0.5-1.1c-0.3-0.3-0.7-0.5-1.2-0.5c-0.7,0-1.2,0.2-1.5,0.7
		c-0.3,0.5-0.4,1.1-0.4,1.8v0.3c0,0.7,0.1,1.3,0.4,1.8C271,47.6,271.5,47.9,272.2,47.9z"/>
	<path class="st1" d="M280.7,47.9c0.4,0,0.8-0.1,1.1-0.4c0.3-0.3,0.5-0.6,0.5-1h1.2l0,0c0,0.6-0.3,1.2-0.8,1.7
		c-0.6,0.5-1.2,0.7-2,0.7c-1,0-1.8-0.3-2.4-1c-0.6-0.7-0.8-1.5-0.8-2.6V45c0-1,0.3-1.9,0.8-2.6c0.6-0.7,1.4-1,2.4-1
		c0.8,0,1.5,0.2,2.1,0.7s0.8,1.1,0.8,1.8l0,0h-1.2c0-0.4-0.2-0.8-0.5-1.1c-0.3-0.3-0.7-0.5-1.2-0.5c-0.7,0-1.2,0.2-1.5,0.7
		c-0.3,0.5-0.4,1.1-0.4,1.8v0.3c0,0.7,0.1,1.3,0.4,1.8C279.6,47.6,280.1,47.9,280.7,47.9z"/>
	<path class="st1" d="M290.8,48.8c0-0.2-0.1-0.4-0.1-0.6c0-0.2,0-0.3,0-0.5c-0.2,0.3-0.6,0.6-1,0.9c-0.4,0.2-0.8,0.3-1.3,0.3
		c-0.7,0-1.3-0.2-1.7-0.6c-0.4-0.4-0.6-0.9-0.6-1.6c0-0.7,0.3-1.2,0.8-1.6c0.6-0.4,1.3-0.6,2.3-0.6h1.4v-0.7c0-0.4-0.1-0.8-0.4-1
		s-0.6-0.4-1.1-0.4c-0.4,0-0.8,0.1-1,0.3c-0.3,0.2-0.4,0.5-0.4,0.8h-1.3l0,0c0-0.5,0.2-1,0.7-1.4c0.5-0.4,1.2-0.7,2-0.7
		c0.8,0,1.5,0.2,2,0.6c0.5,0.4,0.7,1,0.7,1.8v3.5c0,0.3,0,0.5,0,0.7c0,0.2,0.1,0.5,0.1,0.7H290.8z M288.7,47.8
		c0.5,0,0.9-0.1,1.3-0.4c0.4-0.2,0.6-0.5,0.7-0.8v-1.2h-1.5c-0.5,0-1,0.1-1.3,0.4c-0.3,0.3-0.5,0.6-0.5,0.9c0,0.3,0.1,0.6,0.3,0.8
		C288,47.7,288.3,47.8,288.7,47.8z"/>
	<path class="st1" d="M299.4,46.9c0-0.3-0.1-0.5-0.3-0.7c-0.2-0.2-0.6-0.3-1.2-0.5c-0.9-0.2-1.5-0.4-2-0.8c-0.4-0.3-0.7-0.8-0.7-1.3
		c0-0.6,0.2-1.1,0.7-1.5c0.5-0.4,1.1-0.6,1.9-0.6c0.8,0,1.5,0.2,2,0.6c0.5,0.4,0.7,1,0.7,1.6l0,0h-1.2c0-0.3-0.1-0.6-0.4-0.8
		c-0.3-0.3-0.6-0.4-1-0.4c-0.5,0-0.8,0.1-1,0.3c-0.2,0.2-0.3,0.4-0.3,0.7c0,0.3,0.1,0.5,0.3,0.7c0.2,0.2,0.6,0.3,1.2,0.4
		c0.9,0.2,1.6,0.5,2,0.8c0.4,0.3,0.7,0.8,0.7,1.3c0,0.6-0.3,1.2-0.8,1.5c-0.5,0.4-1.2,0.6-2,0.6c-0.9,0-1.6-0.2-2.2-0.7
		c-0.5-0.5-0.8-1-0.8-1.6l0,0h1.3c0,0.5,0.2,0.8,0.5,1s0.7,0.3,1.1,0.3c0.5,0,0.8-0.1,1.1-0.3C299.3,47.4,299.4,47.2,299.4,46.9z"/>
	<path class="st1" d="M305.2,39.7h-1.3v-1.3h1.3V39.7z M305.2,48.8h-1.3v-7.2h1.3V48.8z"/>
	<path class="st1" d="M308.2,45.1c0-1.1,0.3-1.9,0.9-2.6c0.6-0.7,1.4-1,2.3-1c1,0,1.8,0.3,2.4,1c0.6,0.7,0.9,1.6,0.9,2.6v0.1
		c0,1.1-0.3,2-0.9,2.6c-0.6,0.7-1.4,1-2.4,1c-1,0-1.8-0.3-2.4-1c-0.6-0.7-0.9-1.6-0.9-2.6V45.1z M309.5,45.3c0,0.8,0.2,1.4,0.5,1.9
		c0.3,0.5,0.8,0.7,1.4,0.7c0.6,0,1.1-0.2,1.4-0.7c0.3-0.5,0.5-1.1,0.5-1.9v-0.1c0-0.8-0.2-1.4-0.5-1.9s-0.8-0.8-1.4-0.8
		c-0.6,0-1.1,0.3-1.4,0.8c-0.3,0.5-0.5,1.1-0.5,1.9V45.3z"/>
	<path class="st1" d="M318.8,41.6l0.1,1.1c0.2-0.4,0.5-0.7,0.9-0.9c0.4-0.2,0.8-0.3,1.2-0.3c0.8,0,1.4,0.2,1.8,0.7
		c0.4,0.5,0.6,1.2,0.6,2.1v4.5h-1.3v-4.5c0-0.6-0.1-1.1-0.4-1.3c-0.3-0.3-0.6-0.4-1.1-0.4c-0.4,0-0.7,0.1-1,0.3
		c-0.3,0.2-0.5,0.4-0.7,0.7v5.2h-1.3v-7.2H318.8z"/>
	<path class="st1" d="M330.9,46.9c0-0.3-0.1-0.5-0.3-0.7c-0.2-0.2-0.6-0.3-1.2-0.5c-0.9-0.2-1.5-0.4-2-0.8c-0.4-0.3-0.7-0.8-0.7-1.3
		c0-0.6,0.2-1.1,0.7-1.5s1.1-0.6,1.9-0.6c0.8,0,1.5,0.2,2,0.6c0.5,0.4,0.7,1,0.7,1.6l0,0h-1.2c0-0.3-0.1-0.6-0.4-0.8
		c-0.3-0.3-0.6-0.4-1-0.4c-0.5,0-0.8,0.1-1,0.3c-0.2,0.2-0.3,0.4-0.3,0.7c0,0.3,0.1,0.5,0.3,0.7c0.2,0.2,0.6,0.3,1.2,0.4
		c0.9,0.2,1.6,0.5,2,0.8c0.4,0.3,0.7,0.8,0.7,1.3c0,0.6-0.3,1.2-0.8,1.5c-0.5,0.4-1.2,0.6-2,0.6c-0.9,0-1.6-0.2-2.2-0.7
		s-0.8-1-0.8-1.6l0,0h1.3c0,0.5,0.2,0.8,0.5,1s0.7,0.3,1.1,0.3c0.5,0,0.8-0.1,1.1-0.3C330.8,47.4,330.9,47.2,330.9,46.9z"/>
</g>
<g>
	<path class="st1" d="M34.3,59.6c-16.4,0-29.8-13.4-29.8-29.8S17.9,0,34.3,0s29.8,13.4,29.8,29.8S50.8,59.6,34.3,59.6z M34.3,3.3
		C19.7,3.3,7.8,15.2,7.8,29.8s11.9,26.5,26.5,26.5c14.6,0,26.5-11.9,26.5-26.5S49,3.3,34.3,3.3z"/>
	<g>
		<rect x="18.6" y="5.3" transform="matrix(0.4318 -0.902 0.902 0.4318 -12.8384 32.2646)" class="st2" width="1.2" height="42"/>
	</g>
	<g>
		
			<rect x="20.1" y="24.6" transform="matrix(0.9603 -0.2791 0.2791 0.9603 -4.7549 17.0599)" class="st2" width="74.8" height="1.2"/>
	</g>
</g>
<rect x="204.9" y="28.3" transform="matrix(2.489393e-011 -1 1 2.489393e-011 204.6094 262.4603)" class="st3" width="57.2" height="1.3"/>
<g>
	<path class="st1" d="M91.3,39.5c-0.3,0-0.6,0-1,0h-9.8v20h-3.2V2h15.1c4.4,0.6,8.1,2.4,11.2,5.5c3.7,3.7,5.5,8.1,5.5,13.3
		c0,5.2-1.8,9.6-5.5,13.3c-2.5,2.5-5.5,4.2-8.7,5l13.3,20.5h-4L91.3,39.5z M80.6,5.3v31h9.8c4.3,0,7.9-1.5,10.9-4.5
		c3-3,4.5-6.7,4.5-11s-1.5-7.9-4.5-11c-3-3-6.7-4.5-10.9-4.5H80.6z"/>
	<path class="st1" d="M138.6,5.2v54.3h-3.2V5.2h-14.6V2h32.4v3.2H138.6z"/>
	<path class="st1" d="M192.9,37.5H173l-8,22h-3.5l21.4-58.8l21.4,58.8h-3.4L192.9,37.5z M191.7,34.2l-8.8-24.1l-8.8,24.1H191.7z"/>
</g>
<rect x="87.2" y="11.7" transform="matrix(0.9603 -0.2791 0.2791 0.9603 0.6222 28.9691)" class="st2" width="29.8" height="1.2"/>
</svg>
